<svg viewBox="-51.2 -51.2 614.40 614.40" version="1.1" xml:space="preserve" xmlns="http://www.w3.org/2000/svg" xmlns:xlink="http://www.w3.org/1999/xlink" fill="#cef3d7" stroke="#cef3d7"><g id="SVGRepo_bgCarrier" stroke-width="0"></g><g id="SVGRepo_tracerCarrier" stroke-linecap="round" stroke-linejoin="round" stroke="#cef3d7" stroke-width="26.624000000000002"> <style type="text/css"> .st0{fill:#8a8a8a;} .st1{fill:none;stroke:#8a8a8a;stroke-width:0.00512;stroke-linecap:round;stroke-linejoin:round;stroke-miterlimit:10;} </style> <g id="Layer_1"></g> <g id="Layer_2"> <g> <path class="st0" d="M393.87,74.21H118.13c-24.25,0-43.91,19.66-43.91,43.91v275.74c0,24.25,19.66,43.91,43.91,43.91h275.74 c24.25,0,43.91-19.66,43.91-43.91V118.13C437.79,93.87,418.13,74.21,393.87,74.21z M354.04,272H272v82.04c0,8.84-7.16,16-16,16 s-16-7.16-16-16V272h-82.04c-8.84,0-16-7.16-16-16s7.16-16,16-16H240v-82.04c0-8.84,7.16-16,16-16s16,7.16,16,16V240h82.04 c8.84,0,16,7.16,16,16S362.88,272,354.04,272z"></path> </g> </g> </g><g id="SVGRepo_iconCarrier"> <style type="text/css"> .st0{fill:#8a8a8a;} .st1{fill:none;stroke:#8a8a8a;stroke-width:0.00512;stroke-linecap:round;stroke-linejoin:round;stroke-miterlimit:10;} </style> <g id="Layer_1"></g> <g id="Layer_2"> <g> <path class="st0" d="M393.87,74.21H118.13c-24.25,0-43.91,19.66-43.91,43.91v275.74c0,24.25,19.66,43.91,43.91,43.91h275.74 c24.25,0,43.91-19.66,43.91-43.91V118.13C437.79,93.87,418.13,74.21,393.87,74.21z M354.04,272H272v82.04c0,8.84-7.16,16-16,16 s-16-7.16-16-16V272h-82.04c-8.84,0-16-7.16-16-16s7.16-16,16-16H240v-82.04c0-8.84,7.16-16,16-16s16,7.16,16,16V240h82.04 c8.84,0,16,7.16,16,16S362.88,272,354.04,272z"></path> </g> </g> </g></svg>